<svg width="690" height="348" viewBox="0 0 690 348" fill="none" xmlns="http://www.w3.org/2000/svg">
<path d="M676.822 343.987C684.063 343.945 689.925 338.038 689.607 330.803C687.815 289.981 678.782 249.764 662.896 212.041C645.312 170.287 619.676 132.404 587.452 100.557C555.228 68.7097 517.047 43.5213 475.088 26.4299C433.13 9.33855 388.215 0.678894 342.91 0.94538C297.605 1.21187 252.796 10.3993 211.041 27.9831C169.287 45.5668 131.404 71.2026 99.5569 103.427C67.7097 135.651 42.5213 173.832 25.4299 215.791C9.98877 253.698 1.42972 294.018 0.1174 334.859C-0.115159 342.097 5.81547 347.934 13.0566 347.892V347.892C20.2977 347.849 26.1051 341.942 26.3602 334.705C27.6789 297.309 35.5733 260.401 49.7153 225.683C65.5075 186.914 88.7814 151.634 118.208 121.86C147.635 92.0848 182.638 68.3976 221.218 52.1503C259.799 35.9031 301.203 27.414 343.064 27.1677C384.926 26.9215 426.426 34.923 465.196 50.7152C503.965 66.5075 539.244 89.7814 569.019 119.208C598.794 148.635 622.481 183.638 638.729 222.218C653.278 256.768 661.606 293.58 663.364 330.958C663.705 338.191 669.581 344.03 676.822 343.987V343.987Z" fill="url(#paint0_linear_2_319)"/>
<defs>
<linearGradient id="paint0_linear_2_319" x1="0.439208" y1="336.94" x2="178.939" y2="61.44" gradientUnits="userSpaceOnUse">
<stop stop-color="#405548"/>
<stop offset="1" stop-color="#6ADB83"/>
</linearGradient>
</defs>
</svg>
